<svg width="150" height="150" viewBox="0 0 150 150" fill="none" xmlns="http://www.w3.org/2000/svg">
<path d="M134.044 110.703C115.31 99.8055 85.4282 92.1168 75.5942 72.6947C75.5342 72.5902 75.4476 72.5033 75.3433 72.4428C75.239 72.3824 75.1206 72.3506 75 72.3506C74.8794 72.3506 74.761 72.3824 74.6567 72.4428C74.5523 72.5033 74.4658 72.5902 74.4058 72.6947C64.5718 92.1169 34.6896 99.8055 15.956 110.703C15.8023 110.765 15.6719 110.873 15.5831 111.013C15.4944 111.153 15.4517 111.317 15.4612 111.482C15.4878 111.645 15.5714 111.794 15.6971 111.901C15.8228 112.008 15.9824 112.066 16.1475 112.066L16.1643 112.067L16.1767 112.066C47.618 104.855 60.6858 101.597 75 90.9042C89.3142 101.597 102.382 104.855 133.823 112.066L133.836 112.067L133.852 112.066C134.018 112.066 134.177 112.007 134.303 111.901C134.429 111.794 134.512 111.645 134.539 111.482C134.548 111.317 134.506 111.153 134.417 111.013C134.328 110.873 134.198 110.765 134.044 110.703Z" fill="white"/>
<path d="M33.2609 99.4157L33.0976 99.0939L33.1125 98.7333C33.1208 98.532 33.2037 96.8952 33.2136 96.6943C28.3092 99.4113 23.653 103.846 19.8611 106.838C23.8558 104.796 28.137 102.581 32.6108 100.541C32.9543 100.385 33.2981 100.228 33.6424 100.07C33.511 99.8598 33.3796 99.6497 33.2609 99.4157Z" fill="white"/>
<path d="M116.675 99.4157L116.839 99.0939L116.824 98.7333C116.815 98.532 116.732 96.8952 116.723 96.6943C121.627 99.4113 126.283 103.846 130.075 106.838C126.08 104.796 121.799 102.581 117.325 100.541C116.982 100.385 116.638 100.228 116.294 100.07C116.425 99.8598 116.557 99.6497 116.675 99.4157Z" fill="white"/>
<path d="M83.7861 46.5237L83.5331 46.6474C79.8125 48.4673 77.5648 56.5235 76.8228 70.5802C76.9079 70.6824 76.9826 70.793 77.0456 70.9102C83.535 84.1597 99.0472 91.9608 114.518 99.2758C114.658 99.0484 114.796 98.8182 114.921 98.5633C113.918 73.4791 101.328 51.9183 83.7861 46.5237Z" fill="white"/>
<path d="M66.455 46.6474L66.2067 46.526C48.6682 51.9243 36.0815 73.4825 35.0787 98.5633C35.2044 98.814 35.3425 99.0582 35.4926 99.2951C50.9773 91.9744 66.5111 84.1714 73.0067 70.9096C73.055 70.8252 73.1095 70.7445 73.1697 70.6682C72.4315 56.5509 70.1822 48.4706 66.455 46.6474Z" fill="white"/>
<path d="M42.9225 107.263C41.9725 107.53 41.0058 107.797 40.0102 108.064C39.8613 113.717 40.3454 119.37 41.4534 124.916C41.4697 125.018 41.5073 125.116 41.5637 125.203C41.62 125.289 41.694 125.364 41.7808 125.42C41.8676 125.477 41.9653 125.514 42.0675 125.531C42.1698 125.547 42.2744 125.542 42.3745 125.516C42.5711 125.433 42.7306 125.282 42.8232 125.09C42.9158 124.898 42.935 124.679 42.8772 124.473C41.7401 119.847 42.407 112.047 42.9225 107.263Z" fill="white"/>
<path d="M107.012 107.245C107.528 112.034 108.198 119.841 107.059 124.473C107.001 124.679 107.02 124.898 107.113 125.09C107.206 125.282 107.365 125.433 107.562 125.516C107.662 125.542 107.766 125.547 107.869 125.531C107.971 125.514 108.069 125.477 108.155 125.42C108.242 125.364 108.316 125.289 108.373 125.203C108.429 125.116 108.467 125.018 108.483 124.916C109.592 119.364 110.076 113.706 109.925 108.046C108.93 107.779 107.962 107.512 107.012 107.245Z" fill="white"/>
<path d="M74.8005 26.4646C73.7019 27.6603 67.2085 35.1547 67.2085 45.3356C70.823 47.1037 72.7662 53.1403 73.81 60.497L74.8005 26.4646Z" fill="#FF512A"/>
<path d="M75.1354 26.4517L76.1262 60.4965C77.1701 53.14 79.1132 47.1036 82.7276 45.3357C82.7276 35.1214 76.2005 27.6097 75.1354 26.4517Z" fill="#FF512A"/>
</svg>
