<svg width="150" height="150" viewBox="0 0 150 150" fill="none" xmlns="http://www.w3.org/2000/svg">
<path d="M74.537 60.8145L74.6155 60.8221C89.0305 63.1057 100.695 72.5459 106.861 79.1158C105.814 62.5048 91.762 43.725 74.5777 43.725C57.4062 43.725 43.3622 62.4771 42.297 79.079C48.4615 72.5148 60.122 63.0981 74.537 60.8145Z" fill="white"/>
<path d="M109.126 83.6514C103.917 77.3037 91.0541 65.3919 74.6154 62.7878L74.537 62.7802C58.0984 65.3843 45.2405 77.2657 40.0322 83.6132C40.0322 83.6132 43.0557 86.3833 43.3899 92.8105C44.4267 112.747 40.8473 115.999 40.8473 115.999C40.8473 115.999 45.1554 139.927 67.626 146.223C68.6133 131.985 68.0263 117.68 65.8755 103.57C62.8384 103.477 59.8777 102.595 57.284 101.012C54.6904 99.4293 52.5531 97.1989 51.0819 94.5402C52.6439 91.6246 60.1546 90.2624 72.1073 94.6205C71.6963 106.23 69.8996 115.8 69.8996 117.385C69.8996 118.756 74.2905 121.813 74.5766 121.813C74.8641 121.813 79.2583 118.756 79.2583 117.385C79.2583 115.801 77.4654 106.251 77.0518 94.6583C89.0038 90.3004 96.5143 91.6629 98.0761 94.5784C96.6049 97.2371 94.4676 99.4675 91.874 101.051C89.2804 102.634 86.3197 103.515 83.2826 103.608C81.1318 117.718 80.5447 132.023 81.532 146.262C104.003 139.965 108.311 116.037 108.311 116.037C108.311 116.037 104.731 112.785 105.768 92.8486C106.102 86.4215 109.126 83.6514 109.126 83.6514Z" fill="white"/>
<path d="M74.5777 42.2478C75.8873 42.2524 77.1942 42.3651 78.4851 42.5849V37.8546C78.4851 37.0456 76.7363 36.3898 74.5789 36.3898C72.4216 36.3898 70.6727 37.0456 70.6727 37.8546V42.5845C71.9629 42.365 73.269 42.2524 74.5777 42.2478Z" fill="white"/>
<path d="M106.614 50.0556V49.9739C106.612 50.0237 106.614 50.0556 106.614 50.0556Z" fill="white"/>
<path d="M110.083 52.968C110.383 52.733 110.699 52.5212 111.031 52.3344C106.91 46.499 101.448 41.7382 95.1039 38.4524C88.7603 35.1667 81.7206 33.4519 74.5765 33.4523C67.4324 33.4527 60.3928 35.1682 54.0495 38.4547C47.7063 41.7411 42.2447 46.5024 38.124 52.3384L41.093 54.3046C44.4697 49.8802 48.6899 46.169 53.5096 43.3854C58.3293 40.6018 63.6529 38.8011 69.1727 38.0874V37.8546C69.1727 36.0535 71.2948 34.8898 74.5789 34.8898C77.8631 34.8898 79.9851 36.0535 79.9851 37.8546V38.0874C85.505 38.8011 90.8286 40.6018 95.6483 43.3854C100.468 46.169 104.688 49.8803 108.065 54.3047L110.083 52.968Z" fill="white"/>
<path d="M122.692 48.622C128.692 46.7866 134.853 45.5299 141.093 44.869C139.991 43.1284 138.52 41.6507 136.785 40.54C132.525 40.8884 128.325 41.7663 124.282 43.1533C125.909 41.8685 133.531 39.5831 136.982 38.5905C134.916 37.8959 132.733 37.6196 130.56 37.7777C132.584 37.3239 134.661 37.1514 136.732 37.2649C134.56 34.568 131.434 32.0721 129.188 29.6307L124.958 29.6767L128.475 27.8683C124.902 24.2167 120.971 20.935 116.74 18.0731L113.568 19.5832L115.153 17.0335C112.618 15.4082 109.984 13.9417 107.267 12.6425L101.952 20.9365L106.491 11.83C103.709 10.5703 100.809 9.59112 97.8324 8.90712C97.5154 9.37088 97.2339 9.85788 96.9902 10.364L97.1792 8.74762C94.9702 8.22112 92.7188 7.76197 90.4209 7.26262C89.6661 7.62262 89.4096 8.30175 89.0394 8.72866C89.0643 8.04115 89.2106 7.36346 89.4717 6.72696C88.8327 7.1404 86.1637 13.0424 86.1637 13.0424L87.7425 7.40362C83.2676 6.3375 78.7414 5.49999 74.1813 4.89435C73.3134 5.14126 73.1679 6.09735 72.0949 6.02209C72.0771 5.25914 72.1148 4.49589 72.2078 3.7384C71.2528 5.37063 70.7028 7.20792 70.6038 9.0964C70.3888 10.2811 70.1846 11.6321 70.0265 13.1526C69.6357 10.5249 68.9783 7.94379 68.0645 5.4493C64.316 5.77088 60.5966 6.37 56.9367 7.24173C58.4556 10.806 62.1768 19.7724 63.1576 24.3199C62.0587 19.375 57.4655 10.6386 55.777 7.52811C51.0619 8.71787 46.4741 10.3647 42.0786 12.4451C44.651 15.5448 46.8741 18.9183 48.7078 22.5047C46.3822 19.1523 43.8574 15.9424 41.1471 12.8925C40.5263 13.1979 40.1988 13.7734 39.5876 14.095C39.5876 14.095 40.1139 15.5611 40.2642 15.937C39.6283 15.2879 38.8234 14.8297 37.9406 14.6142C34.561 16.3864 31.3281 18.4252 28.2726 20.7113C28.3818 21.0066 28.2955 21.7694 28.5356 22.1021C28.0008 22.0176 27.4594 21.9817 26.9181 21.995C25.6859 22.9858 24.4818 24.0105 23.3178 25.0798C23.1158 25.2654 23.9799 25.9349 23.7616 26.1244C23.6022 26.2628 22.3635 25.9203 22.1977 26.0604C20.5675 27.3376 19.0183 28.7148 17.559 30.1841C19.7859 30.6613 21.9277 31.4724 23.9121 32.5899C21.7728 31.9051 19.5656 31.4545 17.3291 31.2458C17.0461 31.5721 16.7627 31.898 16.485 32.2291C14.1306 35.275 12.0377 38.5144 10.2287 41.9126C11.7732 41.7008 13.331 41.6003 14.89 41.6119C12.8562 41.916 10.8539 42.4023 8.9071 43.0647C14.8684 42.3583 20.9122 43.0787 26.5404 45.1665C24.7507 45.0653 22.3423 45.1376 21.1302 46.0853C21.1302 46.0853 28.2847 45.6918 32.7084 47.8897C31.849 48.0373 31.0141 48.303 30.2274 48.6792C31.4698 48.6703 32.7007 48.9178 33.8431 49.4063C34.9855 49.8948 36.0149 50.6138 36.8668 51.5182L36.9006 51.4705C41.1602 45.4389 46.8056 40.518 53.3622 37.1215C59.9187 33.725 67.1949 31.9523 74.579 31.9523C81.9631 31.9523 89.2393 33.725 95.7959 37.1215C102.352 40.518 107.998 45.4389 112.257 51.4705C114.26 50.9734 116.293 50.6069 118.343 50.3733C123.36 49.7102 128.438 49.6336 133.473 50.1452C130.005 48.9737 126.349 48.4572 122.692 48.622Z" fill="#FF512A"/>
</svg>
