<svg width="150" height="150" viewBox="0 0 150 150" fill="none" xmlns="http://www.w3.org/2000/svg">
<path d="M39.58 115.489C39.8113 112.496 40.0732 109.057 40.253 104.991C39.2944 108.46 36.8146 116.172 33.5043 116.986L33.5711 118.565C35.4004 119.381 37.2903 120.053 39.2238 120.576C39.3075 119.033 39.4358 117.355 39.58 115.489Z" fill="white"/>
<path d="M109.747 104.991C109.927 109.057 110.189 112.497 110.42 115.489C110.564 117.355 110.692 119.033 110.776 120.576C112.71 120.054 114.599 119.381 116.429 118.566L116.496 116.986C113.185 116.172 110.705 108.46 109.747 104.991Z" fill="white"/>
<path d="M74.5832 42.2284C75.9621 42.2332 77.3382 42.3519 78.6975 42.5834V37.6025C78.6975 36.7506 76.856 36.0601 74.5844 36.0601C72.3128 36.0601 70.4713 36.7506 70.4713 37.6025V42.5829C71.8299 42.3518 73.2051 42.2332 74.5832 42.2284Z" fill="white"/>
<path d="M83.6166 20.156C84.4625 16.9082 85.5672 13.7334 86.9201 10.662C85.853 10.2904 84.6157 8.9635 82.4188 8.80497L80.6396 15.3285L81.108 8.27439C79.6851 7.94724 78.2998 7.47418 76.974 6.86271C76.4867 11.7311 76.2522 16.6214 76.2712 21.5141C76.2699 21.6479 76.1389 7.42159 76.2189 6.52531C74.9941 6.1543 73.8112 5.87524 73.8112 5.87524L73.413 10.421L71.9606 6.94455C70.903 7.68632 69.7518 8.28454 68.5369 8.72355L68.4825 13.4375L66.9834 9.53127C65.3762 9.76336 63.7935 10.1418 62.2551 10.662C62.4495 11.1407 62.7298 11.8552 63.0582 12.7403C62.6027 12.1339 62.1037 11.5616 61.565 11.0278C62.2424 12.2098 62.9976 13.3466 63.7214 14.5863C64.3969 16.5288 65.159 18.9205 65.8015 21.431C65.0496 20.3344 64.0463 19.4335 62.8754 18.8036C64.9839 20.7423 66.3705 23.3403 66.8077 26.1711C67.0801 27.7448 67.2266 29.3378 67.2458 30.9349C67.2424 31.69 67.4203 32.4349 67.7647 33.1069C68.109 33.7789 68.6096 34.3585 69.2245 34.7968C69.9928 33.8068 72.3338 33.3474 74.5401 33.3474C76.8025 33.3474 79.203 33.8316 79.9076 34.8746C80.5389 34.4312 81.0528 33.8408 81.405 33.1544C81.7573 32.4681 81.9372 31.7063 81.9294 30.9349C81.9432 29.3844 82.0705 27.837 82.3104 26.3051C82.4385 25.9044 82.5677 25.4284 82.6964 24.8538C83.8799 19.569 86.424 16.8441 88.435 13.7728C86.4915 15.6236 84.8639 17.7798 83.6166 20.156Z" fill="#FF512A"/>
<path d="M57.9546 70.1375C62.7494 66.8101 67.7075 63.3695 74.7129 62.0717L75.0006 62.0184L75.2883 62.0717C82.2929 63.3695 87.2507 66.81 92.0451 70.1372C96.8078 73.4423 101.749 76.8272 108.93 78.3819C108.971 78.1552 108.992 77.9253 108.992 77.6949C107.89 62.1611 93.0931 44.5991 74.9987 44.5991C56.9177 44.5991 42.1299 62.1351 41.0081 77.6605C41.0081 77.9161 41.0281 78.1491 41.0435 78.3873C48.238 76.8353 53.186 73.4466 57.9546 70.1375Z" fill="white"/>
<path d="M75.0006 63.9126H74.9994C61.0588 66.4954 55.9547 77.8742 39.7051 80.4909C40.3423 83.7495 40.7928 87.0419 41.0542 90.352C51.7111 89.3551 63.2772 88.4333 75.6529 88.4333C87.7721 88.4333 97.9033 89.3005 108.946 90.3487C109.207 87.0398 109.658 83.7484 110.295 80.4909C94.0453 77.8742 88.9412 66.4954 75.0006 63.9126ZM74.9998 82.4657C73.7075 82.4657 72.4443 82.0825 71.3698 81.3646C70.2953 80.6466 69.4579 79.6262 68.9634 78.4323C68.4688 77.2384 68.3394 75.9246 68.5915 74.6572C68.8436 73.3898 69.4659 72.2256 70.3797 71.3118C71.2935 70.398 72.4577 69.7757 73.7251 69.5236C74.9926 69.2715 76.3063 69.4009 77.5002 69.8954C78.6941 70.39 79.7145 71.2274 80.4325 72.3019C81.1504 73.3764 81.5336 74.6396 81.5336 75.9319C81.5318 77.6642 80.8428 79.325 79.6179 80.55C78.3929 81.7749 76.7321 82.4639 74.9998 82.4657Z" fill="white"/>
<path d="M75 80.7018C77.6343 80.7018 79.7698 78.5662 79.7698 75.9319C79.7698 73.2976 77.6343 71.1621 75 71.1621C72.3657 71.1621 70.2302 73.2976 70.2302 75.9319C70.2302 78.5662 72.3657 80.7018 75 80.7018Z" fill="white"/>
<path d="M108.972 96.0662C108.972 94.8575 109.015 93.6135 109.081 92.3742C98.0544 91.3272 87.8647 90.4485 75.6577 90.4485C63.4387 90.4485 52.1239 91.3288 40.919 92.3773C40.9852 93.6155 41.0275 94.8586 41.0275 96.0662C52.1955 94.9976 63.4157 94.0519 75.6082 94.0519C86.7565 94.1595 97.8922 94.8318 108.972 96.0662Z" fill="white"/>
<path d="M57.4058 114.89C57.4058 114.89 54.5369 112.792 53.5106 111.808C49.1173 107.596 47.6954 97.3193 47.6954 97.3193L47.6707 97.2954C45.7691 97.4635 43.8913 97.636 42.0372 97.8127C41.8248 122.868 37.5877 128.439 45.4159 136.026C49.9438 140.414 53.624 141.998 56.3745 141.998C56.762 141.999 57.1489 141.966 57.5306 141.899C54.3212 133.189 54.277 123.629 57.4058 114.89Z" fill="white"/>
<path d="M102.339 97.2854L102.304 97.3193C102.304 97.3193 100.883 107.596 96.4893 111.808C95.4631 112.792 92.5942 114.89 92.5942 114.89C95.7228 123.629 95.6786 133.189 92.4694 141.899C92.851 141.966 93.2379 141.999 93.6254 141.998C96.3759 141.998 100.056 140.414 104.584 136.026C112.412 128.439 108.175 122.868 107.963 97.8117C106.078 97.6316 104.203 97.4561 102.339 97.2854Z" fill="white"/>
<path d="M39.3418 92.1084L39.3193 91.6851L39.2317 90.5725C39.0585 88.3749 38.8042 86.3508 38.564 84.719C38.0008 85.3323 37.5853 86.0661 37.3492 86.8646C37.1131 87.663 37.0627 88.5048 37.2017 89.3258C37.3661 91.5594 38.303 93.361 39.4122 93.7791C39.3947 93.2457 39.3733 92.6979 39.3418 92.1084Z" fill="white"/>
<path d="M111.436 84.719C111.196 86.3501 110.942 88.3731 110.769 90.5694L110.681 91.6836L110.658 92.1054C110.627 92.6961 110.605 93.2449 110.588 93.7792C111.697 93.3611 112.634 91.5595 112.798 89.3258C112.937 88.5049 112.887 87.6631 112.651 86.8646C112.415 86.0662 111.999 85.3323 111.436 84.719Z" fill="white"/>
</svg>
