<svg width="15" height="15" viewBox="0 0 15 15" fill="none" xmlns="http://www.w3.org/2000/svg">
<path d="M11.752 8.672C14.072 5.904 14.664 2.048 14.6 0.879995C14.6 0.751995 14.536 0.639995 14.456 0.543995C14.376 0.463995 14.264 0.399995 14.12 0.399995C12.952 0.335995 9.096 0.911995 6.344 3.232L5.704 2.992C4.584 2.576 3.32 2.91199 2.552 3.82399L0.775997 5.92C0.519997 6.208 0.647997 6.672 1.016 6.8L2.92 7.504C2.504 8.208 2.216 8.8 2.024 9.216C1.864 9.552 1.944 9.952 2.216 10.224L4.776 12.8C5.032 13.056 5.432 13.136 5.784 12.976C6.2 12.784 6.792 12.496 7.496 12.08L8.184 13.984C8.312 14.352 8.776 14.464 9.064 14.224L11.144 12.448C12.056 11.68 12.392 10.416 11.976 9.296L11.752 8.672ZM10.552 6.672C9.944 7.28 8.952 7.28 8.328 6.672C7.72 6.064 7.72 5.072 8.328 4.448C8.936 3.83999 9.928 3.83999 10.552 4.448C11.16 5.072 11.16 6.064 10.552 6.672Z" fill="#FF512A"/>
</svg>
